<svg width="22" height="23" viewBox="0 0 22 23" fill="none" xmlns="http://www.w3.org/2000/svg">
<path fill-rule="evenodd" clip-rule="evenodd" d="M18.0244 12.8375C18.1869 13.8125 18.3494 14.625 18.6744 15.6L19.6494 18.3625L18.8369 19.5H13.1494C13.1494 20.3125 12.8244 21.125 12.1744 21.775C11.5244 22.425 10.7119 22.75 9.89941 22.75C9.08691 22.75 8.11191 22.425 7.62441 21.775C6.97441 21.125 6.64941 20.3125 6.64941 19.5H0.961914L0.149414 18.3625L1.12441 15.6C1.44941 14.3 1.77441 13 1.77441 11.7V8.125C1.77441 6.9875 1.93691 5.85 2.42441 4.875C2.91191 3.7375 3.56191 2.925 4.37441 2.1125C5.18691 1.3 6.16191 0.8125 7.29941 0.4875C8.11191 0.1625 9.08691 0 9.89941 0C9.57441 0.4875 9.24941 1.1375 8.92441 1.7875C8.59941 1.7875 8.27441 1.7875 7.78691 2.1125C6.97441 2.275 6.16191 2.7625 5.51191 3.4125C4.86191 3.9 4.21191 4.7125 3.88691 5.525C3.56191 6.3375 3.39941 7.15 3.39941 8.125V11.7C3.39941 13.1625 3.07441 14.625 2.74941 16.0875L2.09941 17.875H17.6994L17.0494 16.0875C16.765 15.2327 16.6042 14.2513 16.4595 13.3672L16.3994 13C17.0494 13 17.5369 13 18.0244 12.8375ZM9.89941 21.125C10.2244 21.125 10.7119 20.9625 11.0369 20.6375C11.3619 20.3125 11.5244 19.9875 11.5244 19.5H8.27441C8.27441 19.9875 8.43691 20.3125 8.76192 20.6375C9.08692 20.9625 9.57441 21.125 9.89941 21.125ZM21.2744 4.875C21.2744 6.16793 20.7608 7.40791 19.8466 8.32215C18.9323 9.23639 17.6923 9.75 16.3994 9.75C15.1065 9.75 13.8665 9.23639 12.9523 8.32215C12.038 7.40791 11.5244 6.16793 11.5244 4.875C11.5244 3.58207 12.038 2.34209 12.9523 1.42785C13.8665 0.513615 15.1065 0 16.3994 0C17.6923 0 18.9323 0.513615 19.8466 1.42785C20.7608 2.34209 21.2744 3.58207 21.2744 4.875Z" fill="orange"/>
</svg>
