<svg width="16" height="15" viewBox="0 0 16 15" fill="none" xmlns="http://www.w3.org/2000/svg">
<g clip-path="url(#clip0_3553_53419)">
<path d="M0.614746 6.1021C0.614746 9.46847 3.45017 12.2042 6.93226 12.2042C8.53651 12.2042 10.004 11.6216 11.1201 10.6667L15.1463 14.5556C15.2209 14.6276 15.3173 14.6637 15.4168 14.6637C15.5163 14.6637 15.6126 14.6276 15.6872 14.5556C15.8365 14.4114 15.8365 14.1802 15.6872 14.036L11.658 10.1471C12.6466 9.06907 13.2498 7.65465 13.2498 6.1021C13.2498 2.73574 10.4144 0 6.93226 0C3.45017 0 0.614746 2.73574 0.614746 6.1021ZM12.4881 6.1021C12.4881 9.06006 9.99464 11.4685 6.93226 11.4685C3.86988 11.4685 1.37645 9.06006 1.37645 6.1021C1.37645 3.14414 3.86988 0.735736 6.93226 0.735736C9.99464 0.735736 12.4881 3.14114 12.4881 6.1021Z" fill="black"/>
</g>
<defs>
<clipPath id="clip0_3553_53419">
<rect width="15.1844" height="14.6667" fill="white" transform="translate(0.614746)"/>
</clipPath>
</defs>
</svg>
