<svg width="33" height="25" viewBox="0 0 33 25" fill="none" xmlns="http://www.w3.org/2000/svg">
<path d="M32.3098 11.5675C32.0742 8.29927 29.4429 6.87285 28.6875 6.52886V3.05469C28.6875 1.87878 27.7306 0.921875 26.5547 0.921875H2.78906C1.61315 0.921875 0.65625 1.87878 0.65625 3.05469V15.2422C0.65625 16.4181 1.61315 17.375 2.78906 17.375H14.7454C14.3279 17.7856 13.9155 18.229 13.5228 18.7044C13.43 18.8169 13.43 18.9799 13.5228 19.0924C16.1156 22.2327 19.5701 23.9734 19.7159 24.0459C19.7588 24.0674 19.8052 24.0781 19.8516 24.0781C19.9073 24.0781 19.9632 24.0626 20.012 24.0322C20.1019 23.9769 20.1563 23.8787 20.1563 23.7734V22.2583C21.3926 22.2821 25.8478 22.2267 28.3231 20.5343C29.9721 19.4066 32.6829 16.7424 32.3098 11.5675ZM2.78906 16.7657C1.9491 16.7657 1.26563 16.0825 1.26563 15.2422V3.05475C1.26563 2.21448 1.9491 1.53131 2.78906 1.53131H26.5547C27.3947 1.53131 28.0781 2.21448 28.0781 3.05475L28.0796 6.69966C28.0775 6.7205 28.0775 6.74134 28.0796 6.76213L28.0811 9.91137C28.0769 9.94111 27.6282 12.8976 23.7979 14.7114C22.4488 15.3511 20.8209 15.4993 20.1562 15.5338V14.0235C20.1562 13.9181 20.1017 13.82 20.0119 13.7646C19.9223 13.7093 19.8101 13.7033 19.7159 13.7509C19.6034 13.8069 17.5274 14.8524 15.3946 16.7657H2.78906ZM27.979 20.031C25.3157 21.8526 19.9191 21.6448 19.8647 21.6407C19.7837 21.6419 19.701 21.668 19.6409 21.7252C19.5808 21.7829 19.5469 21.8621 19.5469 21.9454V23.2617C18.5602 22.7036 16.1078 21.1843 14.1556 18.8985C16.1078 16.6127 18.5602 15.0935 19.5469 14.5353V15.8486C19.5469 16.0171 19.6831 16.1533 19.8516 16.1533C19.9465 16.1533 22.2001 16.1432 24.0589 15.2625C28.1837 13.3088 28.6661 10.1292 28.6875 9.95306V7.20435C29.5534 7.65187 31.5103 8.95033 31.7023 11.6116C32.0534 16.4824 29.5203 18.9777 27.979 20.031ZM16.5491 11.3979C16.9175 10.7624 16.8937 10.0126 16.4837 9.34009C16.2185 8.9045 15.7499 8.59384 15.2944 8.29214C14.8718 8.01128 14.632 7.82737 14.5984 7.80062C14.5871 7.72323 14.6133 7.65187 14.6418 7.61909C14.6513 7.60775 14.66 7.59825 14.7025 7.59526C14.8061 7.59648 14.8662 7.66309 14.8659 7.66254C15.1465 8.05114 15.6949 8.16003 16.1147 7.91006C16.53 7.66308 16.6571 7.14774 16.4099 6.71094C16.2222 6.37944 15.6972 5.9282 14.9405 5.85641C14.9309 5.81144 14.9229 5.77293 14.9204 5.75001C14.8763 5.47951 14.4627 5.48433 14.4203 5.75001L14.395 5.87951C13.9338 5.95129 13.5209 6.1628 13.2241 6.50198C12.856 6.9233 12.6921 7.48448 12.7742 8.04151C12.8893 8.82943 13.6386 9.32631 14.2423 9.7274C14.4309 9.85239 14.8237 10.113 14.8891 10.216C14.9457 10.3088 14.9995 10.4433 14.9349 10.554C14.8841 10.6421 14.7752 10.698 14.632 10.7081C14.5133 10.7105 14.3071 10.5314 14.2244 10.4047C13.9652 9.99461 13.4186 9.85958 12.9789 10.0958C12.5704 10.316 12.4264 10.7831 12.6207 11.2586C12.8363 11.785 13.5529 12.3438 14.3892 12.4374L14.4203 12.5963C14.4627 12.862 14.8763 12.8668 14.9204 12.5963C14.9242 12.5622 14.9396 12.4927 14.9559 12.4174C15.6369 12.3168 16.2266 11.9535 16.5491 11.3979ZM13.1848 11.0278C13.1494 10.9415 13.0869 10.7303 13.2681 10.6327C13.3199 10.6047 13.3776 10.591 13.4344 10.591C13.545 10.591 13.6534 10.6422 13.712 10.7345C13.7161 10.7404 14.1232 11.3533 14.6781 11.3159C15.0223 11.292 15.3083 11.126 15.4618 10.86C15.6273 10.5756 15.6079 10.2257 15.4095 9.89955C15.2872 9.69901 14.9884 9.49133 14.5772 9.21815C14.0503 8.86886 13.4528 8.47252 13.377 7.95296C13.321 7.57271 13.4323 7.18948 13.6826 6.90319C13.9099 6.64372 14.2396 6.48602 14.6106 6.45927C15.3045 6.40509 15.765 6.80917 15.8796 7.01093C15.9439 7.12519 15.9629 7.29179 15.8034 7.38643C15.6576 7.47333 15.4541 7.43585 15.3535 7.29777C15.2919 7.21861 15.0563 6.95676 14.662 6.98711C14.4659 7.00137 14.3047 7.07876 14.1827 7.21861C14.0297 7.39417 13.9598 7.64468 13.9955 7.88929C14.0336 8.14638 14.3228 8.37788 14.9599 8.80158C15.3574 9.0652 15.7686 9.33777 15.9632 9.65732C16.2533 10.1328 16.2747 10.6559 16.0218 11.0921C15.7713 11.5241 15.2875 11.805 14.726 11.8437C13.9875 11.8937 13.3311 11.3861 13.1848 11.0278ZM7.96845 7.95473C7.29631 7.95473 6.7497 8.50165 6.7497 9.17348C6.7497 9.84532 7.29631 10.3922 7.96845 10.3922C8.64059 10.3922 9.1872 9.84532 9.1872 9.17348C9.1872 8.50165 8.64059 7.95473 7.96845 7.95473ZM7.96845 9.78286C7.6325 9.78286 7.35907 9.50974 7.35907 9.17348C7.35907 8.83723 7.6325 8.56411 7.96845 8.56411C8.30439 8.56411 8.57782 8.83723 8.57782 9.17348C8.57782 9.50974 8.30439 9.78286 7.96845 9.78286ZM21.3753 10.3922C22.0474 10.3922 22.5941 9.84532 22.5941 9.17348C22.5941 8.50165 22.0474 7.95473 21.3753 7.95473C20.7032 7.95473 20.1566 8.50165 20.1566 9.17348C20.1566 9.84532 20.7032 10.3922 21.3753 10.3922ZM21.3753 8.56411C21.7113 8.56411 21.9847 8.83723 21.9847 9.17348C21.9847 9.50974 21.7113 9.78286 21.3753 9.78286C21.0394 9.78286 20.7659 9.50974 20.7659 9.17348C20.7659 8.83723 21.0394 8.56411 21.3753 8.56411Z" fill="#FFD600"/>
</svg>
