<svg width="31" height="31" viewBox="0 0 31 31" fill="none" xmlns="http://www.w3.org/2000/svg">
<path d="M28.6941 11.2021C29.1701 12.6047 29.4285 14.107 29.4285 15.6685C29.4285 20.1051 27.3433 24.0638 24.1015 26.6163L26.606 29.121L25.2257 30.5013L22.4563 27.7318C20.4082 28.9174 18.032 29.5968 15.5001 29.5968C12.9681 29.5968 10.5921 28.9174 8.54383 27.7318L5.77445 30.5013L4.39412 29.121L6.89878 26.6163C3.65697 24.0638 1.57177 20.1051 1.57177 15.6685C1.57177 14.107 1.83011 12.6047 2.30619 11.2021C0.904125 10.1054 0.000259399 8.39967 0.000259399 6.48574C0.000259399 3.18472 2.68583 0.499154 5.98685 0.499154C7.82555 0.499154 9.47255 1.333 10.5716 2.64162C12.1046 2.0596 13.7658 1.73997 15.5004 1.73997C17.235 1.73997 18.896 2.0596 20.4292 2.64162C21.5277 1.33287 23.1748 0.499023 25.0134 0.499023C28.3144 0.499023 31 3.18459 31 6.48561C31 8.39954 30.0961 10.1054 28.6941 11.2021ZM5.98659 2.45121C3.762 2.45121 1.95219 4.26102 1.95219 6.48561C1.95219 7.58456 2.39443 8.58187 3.10958 9.31017C4.36601 6.87175 6.32158 4.85033 8.70924 3.51138C7.99097 2.85349 7.03491 2.45121 5.98659 2.45121ZM15.5 3.69203C8.89626 3.69203 3.52357 9.06458 3.52357 15.6683C3.52357 22.2721 8.89613 27.6445 15.5 27.6445C22.1037 27.6445 27.4762 22.2719 27.4762 15.6683C27.4763 9.06471 22.1037 3.69203 15.5 3.69203ZM25.0134 2.45121C23.965 2.45121 23.0089 2.85349 22.2908 3.51138C24.6784 4.85046 26.6341 6.87175 27.8904 9.31017C28.6057 8.58187 29.0478 7.58469 29.0478 6.48561C29.0478 4.26102 27.238 2.45121 25.0134 2.45121ZM9.4784 16.6445H16.4762V9.92836H14.524V14.6924H9.4784V16.6445Z" fill="#FFD600"/>
</svg>
