<svg width="19" height="19" viewBox="0 0 19 19" fill="none" xmlns="http://www.w3.org/2000/svg">
<path fill-rule="evenodd" clip-rule="evenodd" d="M17.3268 1.67321C15.0959 -0.557738 11.4786 -0.557738 9.24768 1.67321L6.80728 4.11362L8.15362 5.45999L10.594 3.01959C12.0823 1.53134 14.4913 1.53134 15.9805 3.01959C17.4649 4.50499 17.4649 6.92061 15.9805 8.40601L13.54 10.8467L14.8864 12.193L17.3268 9.75239C19.5577 7.52144 19.5577 3.90417 17.3268 1.67321ZM8.40597 15.9798C7.68708 16.6996 6.73016 17.0956 5.71325 17.0956C4.69633 17.0956 3.73938 16.6996 3.0205 15.9798C1.53512 14.4954 1.53512 12.0787 3.0205 10.5943L5.4609 8.15367L4.1136 6.80637L1.67319 9.24677C-0.557731 11.4777 -0.557731 15.0952 1.67319 17.3271C2.78913 18.4421 4.25072 19 5.71325 19C7.17577 19 8.63733 18.4421 9.75327 17.3271L12.1937 14.8867L10.8464 13.5394L8.40597 15.9798ZM11.65 6.00388L12.9963 7.35025L7.33571 13.0108L5.98936 11.6644L11.65 6.00388Z" fill="#858585"/>
</svg>
