<svg width="8" height="8" viewBox="0 0 8 8" fill="none" xmlns="http://www.w3.org/2000/svg">
<path fill-rule="evenodd" clip-rule="evenodd" d="M6.58231 0.818075C5.7868 -0.0294453 4.45479 -0.0716027 3.60728 0.723917L2.68019 1.59412L3.16027 2.1056L4.08736 1.23539C4.65273 0.704708 5.53981 0.732784 6.07084 1.29817C6.60015 1.86245 6.572 2.75197 6.00807 3.28165L5.08097 4.15194L5.56106 4.66342L6.48815 3.79313C7.33566 2.99761 7.37782 1.66559 6.58231 0.818075ZM3.13059 5.98233C2.85748 6.23902 2.50049 6.37369 2.12602 6.36184C1.75156 6.34998 1.40379 6.19301 1.14746 5.91956C0.617787 5.35562 0.645951 4.46574 1.21022 3.93642L2.13732 3.06613L1.65689 2.5543L0.729802 3.42451C-0.117709 4.22003 -0.159869 5.55212 0.635629 6.39999C1.03356 6.82358 1.56527 7.04607 2.10383 7.06311C2.64239 7.08016 3.18709 6.89174 3.61101 6.49416L4.5381 5.62395L4.05768 5.11212L3.13059 5.98233ZM4.44142 2.34663L4.92151 2.8581L2.77108 4.87656L2.291 4.36509L4.44142 2.34663Z" fill="#FF7A00"/>
</svg>
