<svg width="42" height="42" viewBox="0 0 42 42" fill="none" xmlns="http://www.w3.org/2000/svg">
<path d="M19.74 32.76C19.74 33.4558 20.3041 34.02 21 34.02C21.6959 34.02 22.26 33.4558 22.26 32.76H19.74ZM22.26 19.32C22.26 18.6241 21.6959 18.06 21 18.06C20.3041 18.06 19.74 18.6241 19.74 19.32H22.26ZM26.04 10.5C26.7359 10.5 27.3 9.93585 27.3 9.23998C27.3 8.54411 26.7359 7.97998 26.04 7.97998V10.5ZM19.74 19.32C19.74 20.0158 20.3041 20.58 21 20.58C21.6959 20.58 22.26 20.0158 22.26 19.32H19.74ZM21 18.06C20.3041 18.06 19.74 18.6241 19.74 19.32C19.74 20.0158 20.3041 20.58 21 20.58V18.06ZM24.36 20.58C25.0559 20.58 25.62 20.0158 25.62 19.32C25.62 18.6241 25.0559 18.06 24.36 18.06V20.58ZM21 20.58C21.6959 20.58 22.26 20.0158 22.26 19.32C22.26 18.6241 21.6959 18.06 21 18.06V20.58ZM17.64 18.06C16.9441 18.06 16.38 18.6241 16.38 19.32C16.38 20.0158 16.9441 20.58 17.64 20.58V18.06ZM22.26 32.76V19.32H19.74V32.76H22.26ZM26.04 7.97998C22.5606 7.97998 19.74 10.8006 19.74 14.28H22.26C22.26 12.1923 23.9524 10.5 26.04 10.5V7.97998ZM19.74 14.28V19.32H22.26V14.28H19.74ZM21 20.58H24.36V18.06H21V20.58ZM21 18.06H17.64V20.58H21V18.06Z" fill="#003554"/>
</svg>
