<svg width="18" height="21" viewBox="0 0 18 21" fill="none" xmlns="http://www.w3.org/2000/svg">
<path d="M17.6668 16.416C15.5326 15.4522 15.4514 11.3152 15.4498 11.2108V8.43532C15.4498 5.76409 13.8175 3.46711 11.498 2.48908C11.493 1.11572 10.3744 0 9.00007 0C7.62566 0 6.50715 1.11579 6.50213 2.48901C4.18267 3.46704 2.55034 5.76402 2.55034 8.43526V11.2107C2.54883 11.3151 2.46758 15.4521 0.333298 16.416C0.0901692 16.5258 -0.0434551 16.7904 0.0127577 17.0513C0.0689048 17.3121 0.299564 17.4984 0.566386 17.4984H5.97698C6.0879 18.1086 6.37641 18.6762 6.81768 19.136C7.40376 19.7466 8.17883 20.0829 8.99997 20.0829C9.82117 20.0829 10.5962 19.7466 11.1823 19.136C11.6236 18.6762 11.9121 18.1085 12.023 17.4984H17.4336C17.7004 17.4984 17.931 17.3121 17.9872 17.0513C18.0435 16.7904 17.9099 16.5258 17.6668 16.416ZM14.8554 14.4341C15.0798 15.1143 15.3975 15.7974 15.8479 16.3658H2.15212C2.60255 15.7975 2.92023 15.1144 3.14459 14.4341H14.8554ZM9.00007 1.13262C9.62176 1.13262 10.1474 1.55036 10.3119 2.11977C9.88815 2.0319 9.44941 1.98556 9.00007 1.98556C8.55073 1.98556 8.11198 2.03186 7.68827 2.11977C7.85278 1.5504 8.37841 1.13262 9.00007 1.13262ZM3.68296 11.2142V8.43522C3.68296 5.5034 6.06818 3.11818 9.00007 3.11818C11.932 3.11818 14.3172 5.5034 14.3172 8.43522V11.2188C14.3179 11.304 14.3312 12.1993 14.5568 13.3014H3.44318C3.66895 12.1983 3.68227 11.3014 3.68296 11.2142ZM9.00007 18.9504C8.13568 18.9504 7.38129 18.3272 7.13914 17.4984H10.8609C10.6188 18.3272 9.86452 18.9504 9.00007 18.9504Z" fill="white"/>
<path d="M9.00006 3.91272C6.56352 3.91272 4.58124 5.89493 4.58124 8.33144C4.58124 8.6442 4.8348 8.89777 5.14757 8.89777C5.46033 8.89777 5.71389 8.6442 5.71389 8.33144C5.71389 6.51947 7.18806 5.04534 9.00009 5.04534C9.31285 5.04534 9.56642 4.79178 9.56642 4.47901C9.56639 4.16622 9.31282 3.91272 9.00006 3.91272Z" fill="white"/>
</svg>
