<svg width="29" height="27" viewBox="0 0 29 27" fill="none" xmlns="http://www.w3.org/2000/svg">
<path d="M14.5 6.56209C13.0275 6.56209 11.588 6.96827 10.3637 7.72922C9.13933 8.49017 8.18505 9.57175 7.62154 10.8371C7.05803 12.1026 6.91059 13.4951 7.19787 14.8384C7.48513 16.1817 8.19422 17.4158 9.23546 18.3843C10.2767 19.3527 11.6033 20.0123 13.0474 20.2795C14.4918 20.5467 15.9887 20.4095 17.3491 19.8854C18.7096 19.3613 19.8724 18.4737 20.6904 17.3349C21.5087 16.1959 21.9452 14.857 21.9452 13.4873C21.9476 12.5772 21.7567 11.6758 21.3834 10.8346C21.01 9.99332 20.4618 9.22901 19.7699 8.5855C19.0781 7.94197 18.2564 7.43196 17.3521 7.08471C16.4475 6.73749 15.4784 6.55988 14.5 6.56209ZM14.5 17.9972C13.541 17.9972 12.6036 17.7327 11.8063 17.2371C11.0091 16.7417 10.3876 16.0373 10.0206 15.2132C9.65365 14.3891 9.55764 13.4824 9.74471 12.6075C9.93179 11.7327 10.3936 10.929 11.0716 10.2983C11.7496 9.66768 12.6136 9.23816 13.5541 9.06415C14.4947 8.89014 15.4695 8.97944 16.3555 9.32079C17.2415 9.66212 17.9987 10.2402 18.5313 10.9817C19.0641 11.7234 19.3485 12.5953 19.3485 13.4873C19.3485 14.6834 18.8376 15.8306 17.9284 16.6763C17.0192 17.522 15.7858 17.9972 14.5 17.9972ZM23.9972 6.27495C23.9972 6.60903 23.8908 6.9356 23.6912 7.21335C23.4916 7.49112 23.208 7.70763 22.8762 7.83546C22.5445 7.96331 22.1793 7.99675 21.827 7.93159C21.4747 7.8664 21.1513 7.70554 20.8972 7.46932C20.6434 7.2331 20.4703 6.93214 20.4002 6.60449C20.3301 6.27682 20.3661 5.93722 20.5036 5.62857C20.641 5.31994 20.8738 5.05614 21.1724 4.87054C21.4711 4.68493 21.8221 4.58586 22.1813 4.58586C22.6629 4.58586 23.1248 4.76383 23.4653 5.0806C23.806 5.39735 23.9972 5.82699 23.9972 6.27495ZM28.9183 7.96403C28.9711 5.86421 28.1291 3.83017 26.5758 2.3056C24.9454 0.84233 22.7576 0.0404705 20.4925 0.0760088C18.1318 -0.0253363 10.8682 -0.0253363 8.50752 0.0760088C6.25073 0.0305555 4.06541 0.813311 2.42423 2.25493C0.870981 3.7795 0.0289092 5.81354 0.0817158 7.91336C-0.0272386 10.1092 -0.0272386 16.8655 0.0817158 19.0613C0.0289092 21.1612 0.870981 23.1952 2.42423 24.7197C4.06541 26.1614 6.25073 26.9441 8.50752 26.8987C10.9045 27.0338 18.0955 27.0338 20.4925 26.8987C22.75 26.9478 24.9367 26.1646 26.5758 24.7197C28.1291 23.1952 28.9711 21.1612 28.9183 19.0613C29.0272 16.8655 29.0272 10.1092 28.9183 7.91336V7.96403ZM25.8312 21.4767C25.5846 22.0577 25.2126 22.5852 24.7377 23.0269C24.2628 23.4686 23.6957 23.8147 23.0711 24.0441C20.2521 24.5743 17.3702 24.756 14.5 24.5846C11.6359 24.7562 8.75995 24.5745 5.94709 24.0441C5.32255 23.8147 4.75528 23.4686 4.28049 23.0269C3.80569 22.5852 3.43348 22.0577 3.18692 21.4767C2.42423 19.6863 2.58767 15.4636 2.58767 13.5042C2.58767 11.5449 2.42423 7.30529 3.18692 5.53175C3.42652 4.94508 3.79608 4.41184 4.27159 3.96661C4.74711 3.5214 5.31795 3.17416 5.94709 2.94745C8.75995 2.41705 11.6359 2.2353 14.5 2.40695C17.3702 2.23559 20.2521 2.41733 23.0711 2.94745C23.6957 3.1768 24.2628 3.52301 24.7377 3.96465C25.2126 4.40628 25.5846 4.93393 25.8312 5.51486C26.5939 7.30529 26.4123 11.528 26.4123 13.4873C26.4123 15.4467 26.5939 19.6863 25.8312 21.4598V21.4767Z" fill="#003554"/>
</svg>
