<svg width="11" height="12" viewBox="0 0 11 12" fill="none" xmlns="http://www.w3.org/2000/svg">
<path d="M8.30668 5.773C8.30967 5.23943 8.14772 4.71658 7.8413 4.27061C7.53489 3.82462 7.09777 3.47551 6.58523 3.26744C6.07267 3.05936 5.50771 3.00165 4.96181 3.10162C4.41591 3.20158 3.91351 3.45473 3.51823 3.82905C3.12302 4.20336 2.85256 4.68202 2.74115 5.2045C2.62974 5.72705 2.68238 6.26986 2.89238 6.76445C3.10237 7.25903 3.46033 7.68307 3.92095 7.983C4.38163 8.283 4.92428 8.44529 5.48029 8.4495C5.84973 8.45316 6.21606 8.38677 6.55828 8.25407C6.90056 8.12137 7.21194 7.92507 7.47458 7.67635C7.73722 7.42763 7.94593 7.13146 8.08873 6.80484C8.23152 6.47816 8.30559 6.12753 8.30668 5.773ZM3.66468 5.73785C3.66663 5.39036 3.77591 5.05152 3.97871 4.76411C4.18144 4.47678 4.46863 4.25373 4.80392 4.1233C5.1392 3.99286 5.50747 3.96086 5.86226 4.03133C6.21699 4.10181 6.5423 4.2716 6.79695 4.51922C7.05158 4.76685 7.22418 5.08125 7.29291 5.42256C7.36163 5.76393 7.3234 6.11687 7.18303 6.43686C7.04267 6.75685 6.80645 7.02946 6.50436 7.22017C6.2022 7.41095 5.84767 7.51131 5.48557 7.50857C5.00004 7.50489 4.53537 7.31627 4.19391 6.98421C3.85244 6.65215 3.66207 6.20378 3.66468 5.73785ZM8.40393 9.21521C8.26831 9.21418 8.13596 9.17462 8.02362 9.10145C7.91126 9.02828 7.82395 8.92484 7.77273 8.80423C7.72151 8.68362 7.70867 8.55119 7.73584 8.42374C7.76302 8.29629 7.82898 8.1796 7.92539 8.08827C8.0218 7.99701 8.14432 7.93522 8.27747 7.91083C8.41063 7.88644 8.54842 7.90051 8.67343 7.95127C8.79844 8.00203 8.90505 8.0872 8.97979 8.19594C9.05453 8.30475 9.09403 8.43225 9.0933 8.5624C9.09232 8.7369 9.01914 8.90375 8.88985 9.02615C8.76058 9.14862 8.58578 9.21658 8.40393 9.21521ZM7.70825 10.9932C8.56055 11.0188 9.38797 10.7199 10.01 10.1618C10.6073 9.57551 10.9373 8.78522 10.9275 7.96432C10.9734 7.10924 10.9882 4.47725 10.9518 3.62155C10.9749 2.80393 10.6616 2.00967 10.0797 1.41056C9.46397 0.843048 8.63997 0.53167 7.78746 0.544351C6.89631 0.498122 4.15362 0.477356 3.26202 0.510087C2.4097 0.484499 1.58231 0.783374 0.960259 1.34151C0.3717 1.93177 0.0495159 2.72122 0.0633717 3.53911C0.00364414 4.40724 -0.0109773 7.01291 0.0390027 7.88188C0.0144593 8.69976 0.32796 9.49452 0.911152 10.0929C1.52688 10.6604 2.35086 10.9718 3.20339 10.9591C4.09454 11.0053 6.83724 11.0261 7.72882 10.9933L7.70825 10.9932ZM2.22916 9.83306C1.99379 9.74192 1.78041 9.60547 1.60207 9.43205C1.42373 9.25863 1.28439 9.05207 1.19255 8.82501C0.983045 7.80191 0.915127 6.75711 0.990559 5.71761C0.926718 4.67928 1.00634 3.63772 1.22736 2.6201C1.32175 2.3945 1.4634 2.19002 1.64367 2.01933C1.82393 1.84864 2.03883 1.7154 2.2752 1.62784C3.00356 1.35698 4.71741 1.42918 5.51279 1.4352C6.30817 1.44123 8.02954 1.39504 8.74794 1.67685C8.98561 1.76547 9.20132 1.90102 9.38109 2.07469C9.56086 2.24836 9.70066 2.45628 9.79141 2.68495C10.001 3.70582 10.0689 4.7485 9.99343 5.78577C10.0572 6.82633 9.97752 7.87001 9.75659 8.88986C9.66222 9.1155 9.52052 9.31993 9.34028 9.49064C9.16004 9.66135 8.94508 9.79455 8.70876 9.88212C7.98039 10.153 6.26659 10.0742 5.47121 10.0682C4.67583 10.0622 2.95442 10.1149 2.23601 9.83311L2.22916 9.83306Z" fill="white"/>
</svg>
