<svg width="240" height="286" viewBox="0 0 240 286" fill="none" xmlns="http://www.w3.org/2000/svg">
<g filter="url(#filter0_f_3857_25604)">
<circle cx="114.5" cy="171.5" r="38.5" fill="#FFD600"/>
</g>
<g filter="url(#filter1_f_3857_25604)">
<circle cx="120" cy="166" r="44" fill="#FF7A00"/>
</g>
<path d="M73.3634 104.751C72.2492 74.0659 67.6813 53.6562 82.0275 24.1081C81.9792 17.7529 108.562 -12.5519 142.01 8.11276C160.257 15.4709 164.36 38.9132 164.67 66.0958C169.607 90.1552 170.77 102.368 167.336 110.083M73.3634 104.751C72.0724 131.117 68.7822 173.469 68.7822 173.469M73.3634 104.751L76.6957 98.0864C76.6957 98.0864 87.1801 87.0429 98.6893 86.09V80.7582C98.6893 80.7582 98.6893 76.7594 102.688 76.7594V70.7611L95.3569 66.0958C114.878 60.3622 125.823 61.0761 145.342 66.0958C147.334 68.9469 144.58 69.7906 136.678 70.7611V76.7594C141.692 77.952 144.114 78.9455 142.01 86.09C161.614 91.4529 164.939 97.6274 167.336 110.083M167.336 110.083L176 216.052C174.391 227.551 169.399 230.926 156.672 234.047L158.672 244.71C164.791 251.118 165.967 254.076 164.67 258.04C145.342 267.369 88.0257 266.703 76.6957 258.04C76.4466 253.956 77.9878 251.823 82.0275 248.043L84.6934 230.714C64.8147 223.018 63.2111 208.446 68.7822 173.469M68.6981 174.731L68.7822 173.469M98.6893 123.412C127.447 125.556 147.75 129.268 145.342 112.749C149.341 111.415 146.967 109.905 148.008 108.083C148.008 108.083 148.008 110.083 144.676 108.083V102.085L154.673 108.083L162.004 207.388C161.937 217.733 159.032 221.194 144.676 220.051L138.678 218.718C132.381 217.639 131.507 216.15 132.013 212.72H105.354V218.718C85.4241 219.066 75.4344 218.21 78.6951 198.056L88.0257 104.751L95.3569 100.086V104.751L92.0246 108.083L96.6899 112.082L98.6893 123.412ZM98.6893 123.412C87.1401 163.383 81.4512 185.17 96.6899 204.056L102.688 211.387H136.678L142.01 204.056C154.816 194.917 154.818 188.265 153.34 176.064C151.919 156.044 151.379 144.862 142.01 123.412C125.092 125.771 115.608 124.939 98.6893 123.412Z" stroke="white" stroke-width="2"/>
<path d="M94.6908 234.04C114.542 241.63 125.93 241.524 146.676 234.04M92.0249 246.703C114.148 254.338 126.552 253.409 148.675 246.703M107.354 166.06C102.13 184.385 107.463 193.151 117.351 208.714C130.577 192.564 134.136 183.314 130.014 166.06M107.354 166.06L117.351 152.064C117.351 147.399 130.014 166.06 130.014 166.06M107.354 166.06L117.351 151.398C117.351 146.734 130.014 166.06 130.014 166.06" stroke="white" stroke-width="2"/>
<path d="M98.6891 92.75C115.31 102.462 124.288 101.036 140.01 92.75M91.3579 234.708C-nan -nan -nan -nan 150.007 234.708" stroke="white" stroke-width="2"/>
<defs>
<filter id="filter0_f_3857_25604" x="38" y="95" width="153" height="153" filterUnits="userSpaceOnUse" color-interpolation-filters="sRGB">
<feFlood flood-opacity="0" result="BackgroundImageFix"/>
<feBlend mode="normal" in="SourceGraphic" in2="BackgroundImageFix" result="shape"/>
<feGaussianBlur stdDeviation="19" result="effect1_foregroundBlur_3857_25604"/>
</filter>
<filter id="filter1_f_3857_25604" x="0" y="46" width="240" height="240" filterUnits="userSpaceOnUse" color-interpolation-filters="sRGB">
<feFlood flood-opacity="0" result="BackgroundImageFix"/>
<feBlend mode="normal" in="SourceGraphic" in2="BackgroundImageFix" result="shape"/>
<feGaussianBlur stdDeviation="38" result="effect1_foregroundBlur_3857_25604"/>
</filter>
</defs>
</svg>
