<svg width="108" height="115" viewBox="0 0 108 115" fill="none" xmlns="http://www.w3.org/2000/svg">
<path d="M10.5 95.5002C11.5 90.5002 11.04 95.0502 11.04 95.0502C10.66 88.7802 23.78 81.9202 33.5 76.5002C34.47 74.6202 34.41 72.2702 33.5 69.8902C21.14 53.5802 19.58 26.0602 33.5 15.0202C47.5 1.5002 82.75 9.5002 70.26 49.8402C67.87 54.8102 66.95 60.2602 68.5 66.5002C82.07 76.2602 94.8 83.3002 100.5 93.5002C43.95 123.16 11.5 109.5 10.5 95.5002Z" fill="white" stroke="white" stroke-miterlimit="10"/>
<path d="M80.7941 34.6111C80.7941 52.8182 65.1402 67.7222 45.6471 67.7222C26.1539 67.7222 10.5 52.8182 10.5 34.6111C10.5 16.404 26.1539 1.5 45.6471 1.5C65.1402 1.5 80.7941 16.404 80.7941 34.6111Z" stroke="#003554" stroke-width="3"/>
<line x1="45.5183" y1="2.44336" x2="45.5183" y2="67.5937" stroke="#003554" stroke-width="3"/>
<line x1="11.4431" y1="34.3325" x2="79.851" y2="34.3325" stroke="#003554" stroke-width="3"/>
</svg>
