<svg width="16" height="16" viewBox="0 0 16 16" fill="none" xmlns="http://www.w3.org/2000/svg">
<g clip-path="url(#clip0_3553_54183)">
<path d="M8 16C12.4183 16 16 12.4183 16 8C16 3.58172 12.4183 0 8 0C3.58172 0 0 3.58172 0 8C0 12.4183 3.58172 16 8 16Z" fill="#FF7A00"/>
<path d="M10.5993 8.13589L6 11.2718V8.19296V5L10.5993 8.13589Z" fill="white"/>
<path d="M6.19164 11.6899C6.16098 11.6899 6.13012 11.6819 6.10214 11.6656C6.03929 11.6295 6 11.5584 6 11.4808V5.20904C6 5.13148 6.03929 5.0604 6.10214 5.02423C6.165 4.98785 6.24089 4.99287 6.29972 5.03636L10.5157 8.17225C10.5679 8.21114 10.5993 8.27574 10.5993 8.34493C10.5993 8.41413 10.5679 8.47873 10.5156 8.51762L6.29953 11.6535C6.26714 11.6776 6.22939 11.6899 6.19164 11.6899ZM6.38328 5.60479V11.0853L10.0675 8.34493L6.38328 5.60479Z" fill="white"/>
</g>
<defs>
<clipPath id="clip0_3553_54183">
<rect width="16" height="16" fill="white"/>
</clipPath>
</defs>
</svg>
