<svg width="31" height="31" viewBox="0 0 31 31" fill="none" xmlns="http://www.w3.org/2000/svg">
<g clip-path="url(#clip0_2776_9551)">
<path d="M22.6589 29.2462H0.605469C0.271068 29.2462 0 29.5173 0 29.8517C0 30.186 0.271068 30.4572 0.605469 30.4572H22.6589C22.9933 30.4572 23.2643 30.186 23.2643 29.8517C23.2643 29.5173 22.9933 29.2462 22.6589 29.2462Z" fill="white"/>
<path d="M30.3946 29.2462H27.1375C26.8031 29.2462 26.532 29.5173 26.532 29.8517C26.532 30.186 26.8031 30.4572 27.1375 30.4572H30.3946C30.729 30.4572 31 30.186 31 29.8517C31 29.5173 30.729 29.2462 30.3946 29.2462Z" fill="white"/>
<path d="M26.1664 20.6963H18.0733V20.1471C18.0733 15.9415 18.9074 11.9969 20.5524 8.42279C20.8944 7.67982 21.0647 6.88514 21.0588 6.06104C21.0485 4.61633 20.48 3.24833 19.4584 2.20916C18.4366 1.16976 17.0785 0.578577 15.6342 0.544489C14.122 0.509795 12.6961 1.06998 11.6162 2.1247C10.5359 3.17973 9.94101 4.59217 9.94101 6.1019C9.94101 6.88369 10.1003 7.63986 10.4144 8.34947C12.0815 12.1147 12.9267 15.9699 12.9267 19.8081V20.6963H4.83358C2.1683 20.6963 0 22.8646 0 25.5299V27.4088C0 27.7432 0.271068 28.0143 0.605469 28.0143H30.3945C30.7289 28.0143 31 27.7432 31 27.4088V25.5299C31 22.8646 28.8316 20.6963 26.1664 20.6963ZM11.5217 7.85922C11.2763 7.30497 11.1519 6.71373 11.1519 6.1019C11.1519 4.921 11.6173 3.8162 12.4622 2.99095C13.3069 2.16606 14.4223 1.72757 15.6056 1.75506C17.9281 1.80992 19.8313 3.74548 19.8479 6.06981C19.8526 6.71482 19.7195 7.33615 19.4524 7.91655C17.7338 11.6505 16.8624 15.7655 16.8624 20.1471V20.6963H14.1376V19.8081C14.1376 15.7999 13.2575 11.7797 11.5217 7.85922ZM29.7891 26.8033H1.21094V25.5298C1.21094 23.5323 2.83602 21.9072 4.83358 21.9072H26.1664C28.1639 21.9072 29.7891 23.5323 29.7891 25.5298V26.8033Z" fill="white"/>
<path d="M16.1745 3.33483C16.1824 3.00055 15.9178 2.72313 15.5835 2.71526C14.6426 2.69273 13.755 3.04233 13.0828 3.69878C12.4105 4.35541 12.0403 5.23449 12.0403 6.17412C12.0403 6.50846 12.3114 6.77959 12.6458 6.77959C12.9802 6.77959 13.2512 6.50846 13.2513 6.17412C13.2513 5.56338 13.492 4.99194 13.929 4.56509C14.3658 4.13847 14.943 3.91191 15.5549 3.92583C15.8899 3.93516 16.1666 3.66911 16.1745 3.33483Z" fill="white"/>
<path d="M17.7488 6.15747C17.7512 6.49036 18.0217 6.75858 18.3541 6.75858C18.3556 6.75858 18.3571 6.75858 18.3586 6.75858C18.693 6.75616 18.9621 6.48315 18.9597 6.14875C18.9537 5.30666 18.638 4.49564 18.0708 3.86486C17.8472 3.6162 17.4643 3.59579 17.2158 3.81951C16.9671 4.04305 16.9468 4.42589 17.1704 4.67456C17.5394 5.08494 17.7449 5.61158 17.7488 6.15747Z" fill="white"/>
<path d="M6.88236 24.2927H3.62524C3.29084 24.2927 3.01978 24.5639 3.01978 24.8982C3.01978 25.2325 3.29084 25.5037 3.62524 25.5037H6.8823C7.2167 25.5037 7.48783 25.2325 7.48783 24.8982C7.48783 24.5639 7.21676 24.2927 6.88236 24.2927Z" fill="white"/>
</g>
<defs>
<clipPath id="clip0_2776_9551">
<rect width="31" height="31" fill="white"/>
</clipPath>
</defs>
</svg>
