<svg width="11" height="14" viewBox="0 0 11 14" fill="none" xmlns="http://www.w3.org/2000/svg">
<path d="M2.00195 13.2578C1.6582 13.2578 1.36383 13.1163 1.11883 12.8331C0.87383 12.55 0.751538 12.2101 0.751955 11.8134V2.42448C0.574872 2.42448 0.42633 2.35515 0.30633 2.21648C0.18633 2.07781 0.126539 1.90641 0.126955 1.70226C0.126955 1.49763 0.186955 1.32598 0.306955 1.18731C0.426955 1.04865 0.575288 0.979556 0.751955 0.980037H3.25195C3.25195 0.775407 3.31195 0.603759 3.43195 0.465093C3.55195 0.326426 3.70029 0.257334 3.87695 0.257815H6.37695C6.55404 0.257815 6.70258 0.327148 6.82258 0.465815C6.94258 0.604482 7.00237 0.775889 7.00195 0.980037H9.50195C9.67904 0.980037 9.82758 1.04937 9.94758 1.18804C10.0676 1.3267 10.1274 1.49811 10.127 1.70226C10.127 1.90689 10.067 2.07854 9.94695 2.2172C9.82695 2.35587 9.67862 2.42496 9.50195 2.42448V11.8134C9.50195 12.2106 9.37945 12.5508 9.13445 12.8339C8.88945 13.117 8.59529 13.2583 8.25195 13.2578H2.00195ZM2.00195 2.42448V11.8134H8.25195V2.42448H2.00195ZM3.25195 9.6467C3.25195 9.85133 3.31195 10.023 3.43195 10.1616C3.55195 10.3003 3.70029 10.3694 3.87695 10.3689C4.05404 10.3689 4.20258 10.2996 4.32258 10.1609C4.44258 10.0223 4.50237 9.85085 4.50195 9.6467V4.59115C4.50195 4.38652 4.44195 4.21487 4.32195 4.0762C4.20195 3.93754 4.05362 3.86844 3.87695 3.86892C3.69987 3.86892 3.55133 3.93826 3.43133 4.07692C3.31133 4.21559 3.25154 4.387 3.25195 4.59115V9.6467ZM5.75195 9.6467C5.75195 9.85133 5.81195 10.023 5.93195 10.1616C6.05195 10.3003 6.20029 10.3694 6.37695 10.3689C6.55404 10.3689 6.70258 10.2996 6.82258 10.1609C6.94258 10.0223 7.00237 9.85085 7.00195 9.6467V4.59115C7.00195 4.38652 6.94195 4.21487 6.82195 4.0762C6.70195 3.93754 6.55362 3.86844 6.37695 3.86892C6.19987 3.86892 6.05133 3.93826 5.93133 4.07692C5.81133 4.21559 5.75154 4.387 5.75195 4.59115V9.6467Z" fill="#FFD600"/>
</svg>
