<svg width="13" height="13" viewBox="0 0 13 13" fill="none" xmlns="http://www.w3.org/2000/svg">
<path d="M0.790807 7.13783L6.17362 1.76228C6.26551 1.67039 6.37433 1.62444 6.50007 1.62444C6.62581 1.62444 6.73463 1.67039 6.82652 1.76228L12.2093 7.13783C12.3012 7.22972 12.3472 7.33975 12.3472 7.46791C12.3472 7.59608 12.3012 7.7061 12.2093 7.79799L11.0051 8.99498C10.9132 9.08687 10.8044 9.13281 10.6786 9.13281C10.5529 9.13281 10.4441 9.08687 10.3522 8.99498L6.50007 5.14286L2.64795 8.99498C2.55606 9.08687 2.44724 9.13281 2.3215 9.13281C2.19576 9.13281 2.08694 9.08687 1.99505 8.99498L0.790807 7.79799C0.698916 7.7061 0.652972 7.59608 0.652972 7.46791C0.652972 7.33975 0.698916 7.22972 0.790807 7.13783Z" fill="white"/>
</svg>
