<svg width="38" height="38" viewBox="0 0 38 38" fill="none" xmlns="http://www.w3.org/2000/svg">
<path d="M33.9396 5.16082C33.6942 4.94881 33.3955 4.80802 33.0758 4.75372C32.7561 4.69941 32.4276 4.73368 32.126 4.85279L4.73084 15.6152C4.37272 15.7559 4.06978 16.0088 3.86736 16.336C3.66494 16.6632 3.57392 17.0472 3.60792 17.4304C3.64192 17.8137 3.79912 18.1756 4.05598 18.4621C4.31284 18.7486 4.65557 18.9441 5.03286 19.0196L12.4687 20.5069V29.6852C12.465 30.0383 12.568 30.3843 12.7642 30.6779C12.9604 30.9715 13.2406 31.1991 13.5683 31.3308C13.7878 31.4227 14.0233 31.4703 14.2613 31.4709C14.4938 31.4702 14.7239 31.4233 14.9382 31.333C15.1525 31.2426 15.3467 31.1106 15.5095 30.9446L19.7543 26.6998L26.0173 32.2114C26.3401 32.498 26.7566 32.6565 27.1882 32.657C27.3759 32.6568 27.5623 32.6272 27.7408 32.5693C28.0352 32.4759 28.3 32.307 28.5087 32.0794C28.7174 31.8518 28.8627 31.5734 28.9303 31.2721L34.5136 6.90859C34.5865 6.59262 34.5715 6.26273 34.4703 5.95466C34.3692 5.64658 34.1856 5.37206 33.9396 5.16082ZM4.79078 17.3255C4.77601 17.1972 4.80493 17.0677 4.87286 16.9579C4.94079 16.8481 5.04377 16.7644 5.16514 16.7204L30.2771 6.85492L12.9248 19.3871L5.26574 17.8553C5.13851 17.8333 5.02242 17.769 4.93624 17.6729C4.85005 17.5767 4.7988 17.4543 4.79078 17.3255ZM14.6698 30.105C14.5867 30.188 14.481 30.2446 14.3658 30.2675C14.2506 30.2904 14.1312 30.2787 14.0227 30.2337C13.9143 30.1888 13.8215 30.1127 13.7563 30.015C13.691 29.9174 13.6562 29.8026 13.6562 29.6852V21.3335L18.861 25.9138L14.6698 30.105ZM33.3561 6.64331L27.7728 31.0068C27.7498 31.107 27.7012 31.1996 27.6317 31.2754C27.5621 31.3512 27.4741 31.4077 27.3762 31.4392C27.2784 31.4708 27.174 31.4764 27.0732 31.4555C26.9725 31.4345 26.879 31.3878 26.8018 31.3199L14.0133 20.0659L33.2601 6.16546C33.3108 6.23291 33.3457 6.31083 33.3623 6.39351C33.3789 6.4762 33.3768 6.56155 33.3561 6.64331Z" fill="#003554"/>
</svg>
