<svg width="31" height="31" viewBox="0 0 31 31" fill="none" xmlns="http://www.w3.org/2000/svg">
<path d="M22.6589 29.2461H0.605469C0.271068 29.2461 0 29.5172 0 29.8516C0 30.1859 0.271068 30.457 0.605469 30.457H22.6589C22.9933 30.457 23.2643 30.1859 23.2643 29.8516C23.2643 29.5172 22.9933 29.2461 22.6589 29.2461Z" fill="#FFD600"/>
<path d="M30.3945 29.2461H27.1374C26.803 29.2461 26.5319 29.5172 26.5319 29.8516C26.5319 30.1859 26.803 30.457 27.1374 30.457H30.3945C30.7289 30.457 31 30.1859 31 29.8516C31 29.5172 30.7289 29.2461 30.3945 29.2461Z" fill="#FFD600"/>
<path d="M26.1664 20.6963H18.0733V20.1471C18.0733 15.9415 18.9074 11.9969 20.5524 8.42279C20.8944 7.67982 21.0647 6.88514 21.0588 6.06104C21.0485 4.61633 20.48 3.24833 19.4584 2.20916C18.4366 1.16976 17.0785 0.578577 15.6342 0.544489C14.122 0.509795 12.6961 1.06998 11.6162 2.1247C10.5359 3.17973 9.94101 4.59217 9.94101 6.1019C9.94101 6.88369 10.1003 7.63986 10.4144 8.34947C12.0815 12.1147 12.9267 15.9699 12.9267 19.8081V20.6963H4.83358C2.1683 20.6963 0 22.8646 0 25.5299V27.4088C0 27.7432 0.271068 28.0143 0.605469 28.0143H30.3945C30.7289 28.0143 31 27.7432 31 27.4088V25.5299C31 22.8646 28.8316 20.6963 26.1664 20.6963ZM11.5217 7.85922C11.2763 7.30497 11.1519 6.71373 11.1519 6.1019C11.1519 4.921 11.6173 3.8162 12.4622 2.99095C13.3069 2.16606 14.4223 1.72757 15.6056 1.75506C17.9281 1.80992 19.8313 3.74548 19.8479 6.06981C19.8526 6.71482 19.7195 7.33615 19.4524 7.91655C17.7338 11.6505 16.8624 15.7655 16.8624 20.1471V20.6963H14.1376V19.8081C14.1376 15.7999 13.2575 11.7797 11.5217 7.85922ZM29.7891 26.8033H1.21094V25.5298C1.21094 23.5323 2.83602 21.9072 4.83358 21.9072H26.1664C28.1639 21.9072 29.7891 23.5323 29.7891 25.5298V26.8033Z" fill="#FFD600"/>
<path d="M16.1744 3.33496C16.1823 3.00068 15.9176 2.72325 15.5834 2.71538C14.6425 2.69286 13.7548 3.04245 13.0827 3.6989C12.4104 4.35553 12.0402 5.23461 12.0402 6.17424C12.0402 6.50858 12.3112 6.77971 12.6456 6.77971C12.98 6.77971 13.2511 6.50858 13.2512 6.17424C13.2512 5.5635 13.4918 4.99206 13.9289 4.56521C14.3656 4.13859 14.9428 3.91203 15.5548 3.92595C15.8898 3.93528 16.1665 3.66924 16.1744 3.33496Z" fill="#FFD600"/>
<path d="M17.7489 6.15735C17.7512 6.49023 18.0218 6.75846 18.3542 6.75846C18.3557 6.75846 18.3572 6.75846 18.3586 6.75846C18.693 6.75603 18.9622 6.48303 18.9597 6.14863C18.9537 5.30654 18.638 4.49552 18.0709 3.86474C17.8472 3.61607 17.4644 3.59567 17.2159 3.81939C16.9672 4.04293 16.9469 4.42577 17.1704 4.67443C17.5395 5.08482 17.7449 5.61146 17.7489 6.15735Z" fill="#FFD600"/>
<path d="M6.88224 24.2925H3.62512C3.29072 24.2925 3.01965 24.5636 3.01965 24.8979C3.01965 25.2323 3.29072 25.5034 3.62512 25.5034H6.88218C7.21658 25.5034 7.48771 25.2323 7.48771 24.8979C7.48771 24.5636 7.21664 24.2925 6.88224 24.2925Z" fill="#FFD600"/>
</svg>
