<svg width="27" height="25" viewBox="0 0 27 25" fill="none" xmlns="http://www.w3.org/2000/svg">
<path d="M22.0909 6.25H27V25H6.13636V20H7.36364V23.75H25.7727V7.5H22.0909V6.25ZM0 18.75V0H20.8636V18.75H0ZM1.22727 12.4587L3.29277 10.355C3.38646 10.2597 3.51332 10.206 3.64572 10.2055C3.77812 10.205 3.90535 10.2579 3.99968 10.3525C4.04438 10.4007 4.09805 10.4394 4.15757 10.4663C4.21709 10.4932 4.28127 10.5078 4.34637 10.5092C4.41147 10.5106 4.4762 10.4988 4.53678 10.4745C4.59736 10.4501 4.65258 10.4138 4.69923 10.3675L8.28777 6.7125C8.37614 6.62239 8.49441 6.56922 8.61932 6.56343C8.74423 6.55765 8.86675 6.59968 8.96277 6.68125L12.5611 9.735C12.6478 9.80883 12.7565 9.85061 12.8695 9.85356C12.9824 9.85651 13.0931 9.82045 13.1834 9.75125L15.3544 8.0925C15.451 8.01887 15.5704 7.98314 15.6908 7.99187C15.8111 8.00059 15.9244 8.05318 16.0098 8.14L19.6364 11.8337V1.25H1.22727V12.4587ZM19.6364 17.5V13.6012L15.5864 9.47625L13.9197 10.75C13.6086 10.9883 13.2275 11.1126 12.8383 11.1026C12.4491 11.0926 12.0746 10.949 11.7757 10.695L8.68664 8.07375L5.56691 11.25C5.40937 11.4114 5.22195 11.5394 5.01549 11.6265C4.80903 11.7137 4.58765 11.7582 4.36418 11.7575C4.1579 11.7573 3.95335 11.7192 3.76036 11.645L1.22727 14.2262V17.5H19.6364ZM12.8864 5.625C13.1291 5.625 13.3664 5.55169 13.5682 5.41434C13.77 5.27699 13.9273 5.08176 14.0202 4.85335C14.1131 4.62495 14.1374 4.37361 14.0901 4.13114C14.0427 3.88866 13.9258 3.66593 13.7542 3.49112C13.5825 3.3163 13.3639 3.19725 13.1258 3.14902C12.8877 3.10079 12.641 3.12554 12.4167 3.22015C12.1925 3.31476 12.0008 3.47498 11.8659 3.68054C11.7311 3.8861 11.6591 4.12777 11.6591 4.375C11.6591 4.70652 11.7884 5.02446 12.0186 5.25888C12.2487 5.4933 12.5609 5.625 12.8864 5.625Z" fill="#F1EAEA"/>
</svg>
