<svg width="31" height="31" viewBox="0 0 31 31" fill="none" xmlns="http://www.w3.org/2000/svg">
<path fill-rule="evenodd" clip-rule="evenodd" d="M29.7084 5.1665C29.7084 3.02641 27.9735 1.2915 25.8334 1.2915H5.16669C3.02659 1.2915 1.29169 3.02641 1.29169 5.1665V18.0832C1.29169 20.2233 3.02659 21.9582 5.16669 21.9582H6.45835C7.17172 21.9582 7.75002 21.3799 7.75002 20.6665C7.75002 19.9531 7.17172 19.3748 6.45835 19.3748H5.16669C4.45333 19.3748 3.87502 18.7966 3.87502 18.0832V10.3332H27.125V18.0832C27.125 18.7966 26.5467 19.3748 25.8334 19.3748H24.5417C23.8283 19.3748 23.25 19.9531 23.25 20.6665C23.25 21.3799 23.8283 21.9582 24.5417 21.9582H25.8334C27.9735 21.9582 29.7084 20.2233 29.7084 18.0832V5.1665ZM27.125 7.74984V5.1665C27.125 4.45314 26.5467 3.87484 25.8334 3.87484H5.16669C4.45333 3.87484 3.87502 4.45313 3.87502 5.1665V7.74984H27.125Z" fill="#FFD600"/>
<path d="M16.7917 28.4168C16.7917 29.1302 16.2134 29.7085 15.5 29.7085C14.7866 29.7085 14.2084 29.1302 14.2084 28.4168V21.1924L12.5384 22.8622C12.0339 23.3668 11.2162 23.3668 10.7117 22.8622C10.2073 22.358 10.2073 21.54 10.7117 21.0357L14.586 17.1694C15.0906 16.6658 15.9077 16.6663 16.4118 17.1703L20.2856 21.0443C20.7902 21.5488 20.7902 22.3665 20.2856 22.8711C19.7813 23.3753 18.9634 23.3753 18.459 22.8711L16.7917 21.2038V28.4168Z" fill="#FFD600"/>
</svg>
