<svg width="15" height="15" viewBox="0 0 15 15" fill="none" xmlns="http://www.w3.org/2000/svg">
<g clip-path="url(#clip0_2068_6381)">
<path d="M12.4021 11.906L12.3604 2.09469C12.3555 0.943471 11.415 0.0108375 10.2637 0.0157225L5.59168 0.0355473C5.47074 0.0360605 5.37309 0.134522 5.3736 0.255487C5.37411 0.376425 5.47257 0.474082 5.59354 0.473569L10.2656 0.453744C11.1753 0.449884 11.9186 1.18685 11.9224 2.09658L11.9641 11.9079C11.9679 12.8176 11.231 13.5609 10.3212 13.5647L3.78036 13.5925C2.87066 13.5963 2.12738 12.8594 2.12352 11.9496L2.08189 2.13831C2.07803 1.22861 2.815 0.485332 3.72472 0.481471L4.65915 0.477506C4.78008 0.476993 4.87774 0.378532 4.87723 0.257566C4.87671 0.136628 4.77825 0.0389716 4.65729 0.0394849L3.72286 0.0434499C2.57165 0.0483349 1.63901 0.988917 1.6439 2.14014L1.68553 11.9514C1.69041 13.1027 2.631 14.0353 3.78222 14.0304L10.3231 14.0027C11.4743 13.9978 12.4069 13.0572 12.4021 11.906Z" fill="white"/>
<path d="M7.21894 9.94506L7.82234 9.00806C7.88781 8.90637 7.85846 8.77086 7.75678 8.70534C7.65509 8.63988 7.51958 8.66919 7.45406 8.77091L7.0331 9.42463L4.38259 5.38461L9.6492 5.36226L7.90665 8.06818C7.84122 8.16984 7.87053 8.3054 7.97222 8.37087C8.0739 8.43638 8.20941 8.40701 8.27493 8.3053L10.236 5.26009C10.3284 5.11654 10.2211 4.92183 10.0509 4.92256L3.97724 4.94833C3.80715 4.94905 3.7013 5.14461 3.79507 5.28744L6.85173 9.94661C6.93711 10.0768 7.13462 10.0759 7.21894 9.94506Z" fill="white"/>
</g>
<defs>
<clipPath id="clip0_2068_6381">
<rect width="13.9871" height="13.9871" fill="white" transform="translate(13.9868) rotate(89.7569)"/>
</clipPath>
</defs>
</svg>
