<svg width="20" height="20" viewBox="0 0 20 20" fill="none" xmlns="http://www.w3.org/2000/svg">
<g clip-path="url(#clip0_2068_6388)">
<path d="M17.0146 2.33813H2.98543C1.3393 2.33813 3.90625e-05 3.67739 3.90625e-05 5.32352V12.0041C3.90625e-05 12.177 0.140234 12.3173 0.313203 12.3173C0.486133 12.3173 0.626367 12.1771 0.626367 12.0041V5.32352C0.626367 4.02274 1.68465 2.96442 2.98547 2.96442H17.0147C18.3155 2.96442 19.3738 4.0227 19.3738 5.32352V14.6763C19.3738 15.9771 18.3155 17.0354 17.0147 17.0354H2.98543C1.68465 17.0354 0.626328 15.9772 0.626328 14.6763V13.3402C0.626328 13.1673 0.486133 13.027 0.313164 13.027C0.140234 13.027 0 13.1672 0 13.3402V14.6763C0 16.3225 1.33926 17.6617 2.98539 17.6617H17.0146C18.6607 17.6617 20 16.3225 20 14.6763V5.32352C20 3.67739 18.6608 2.33813 17.0146 2.33813Z" fill="white"/>
<path d="M14.179 9.73745L12.8429 8.86898C12.6979 8.77476 12.5039 8.81589 12.4096 8.96089C12.3154 9.10589 12.3565 9.29984 12.5016 9.39413L13.4338 10L7.64094 13.7654V6.23468L11.4995 8.74273C11.6445 8.83691 11.8385 8.79581 11.9327 8.65081C12.027 8.50581 11.9858 8.31187 11.8408 8.21757L7.4984 5.39507C7.29371 5.26198 7.01465 5.41425 7.01465 5.65761V14.3424C7.01465 14.5856 7.29363 14.7381 7.49844 14.6049L14.179 10.2625C14.3657 10.1412 14.3657 9.85882 14.179 9.73745Z" fill="white"/>
</g>
<defs>
<clipPath id="clip0_2068_6388">
<rect width="20" height="20" fill="white"/>
</clipPath>
</defs>
</svg>
