<svg width="40" height="40" viewBox="0 0 40 40" fill="none" xmlns="http://www.w3.org/2000/svg">
<g clip-path="url(#clip0_2068_6345)">
<path d="M34.0292 4.67639H5.97074C2.67847 4.67639 -4.39453e-05 7.35491 -4.39453e-05 10.6472V24.0083C-4.39453e-05 24.3542 0.280347 24.6347 0.626284 24.6347C0.972144 24.6347 1.25261 24.3543 1.25261 24.0083V10.6472C1.25261 8.04561 3.36917 5.92897 5.97082 5.92897H34.0293C36.6308 5.92897 38.7475 8.04553 38.7475 10.6472V29.3528C38.7475 31.9544 36.6309 34.071 34.0293 34.071H5.97074C3.36917 34.071 1.25253 31.9544 1.25253 29.3528V26.6805C1.25253 26.3347 0.972144 26.0542 0.626206 26.0542C0.280347 26.0542 -0.00012207 26.3346 -0.00012207 26.6805V29.3528C-0.00012207 32.6451 2.67839 35.3236 5.97066 35.3236H34.0291C37.3214 35.3236 39.9999 32.6451 39.9999 29.3528V10.6472C40 7.35491 37.3214 4.67639 34.0292 4.67639Z" fill="#003554"/>
<path d="M28.3579 19.4748L25.6857 17.7378C25.3957 17.5494 25.0078 17.6317 24.8192 17.9217C24.6307 18.2117 24.7129 18.5995 25.003 18.7881L26.8674 19.9999L15.2818 27.5307V12.4692L22.9989 17.4853C23.2888 17.6737 23.6768 17.5915 23.8653 17.3015C24.0539 17.0115 23.9715 16.6236 23.6814 16.435L14.9967 10.79C14.5873 10.5238 14.0292 10.8284 14.0292 11.3151V28.6846C14.0292 29.171 14.5871 29.4761 14.9968 29.2097L28.3579 20.5249C28.7313 20.2824 28.7312 19.7175 28.3579 19.4748Z" fill="#003554"/>
</g>
<defs>
<clipPath id="clip0_2068_6345">
<rect width="40" height="40" fill="white"/>
</clipPath>
</defs>
</svg>
